<svg width="131" height="41" viewBox="0 0 131 41" fill="none" xmlns="http://www.w3.org/2000/svg">
<path d="M0 7.03906H5.08008V32.3516H0V7.03906ZM18.0879 32.3516V28.2031C16.0605 27.6641 14.1914 26.7266 12.4805 25.3906C11.0859 24.1367 10.1777 23.0938 9.75586 22.2617C9.18164 21.3477 8.73047 20.3398 8.40234 19.2383C8.02734 18.0664 7.83984 16.4727 7.83984 14.457V7.03906H12.9375V14.6855C12.9375 16.9121 13.3711 18.6289 14.2383 19.8359C14.4141 20.2227 14.9766 20.8379 15.9258 21.6816C17.3438 22.7949 18.8965 23.3516 20.584 23.3516C22.2715 23.3516 23.8242 22.7949 25.2422 21.6816C26.1914 20.8379 26.7539 20.2227 26.9297 19.8359C27.7969 18.6289 28.2305 16.9121 28.2305 14.6855V7.03906H33.3281V14.457C33.3281 16.4727 33.1406 18.0664 32.7656 19.2383C32.4492 20.3398 31.998 21.3477 31.4121 22.2617C30.9902 23.0938 30.0879 24.1367 28.7051 25.3906C26.9824 26.7266 25.1074 27.6641 23.0801 28.2031V32.3516H18.0879ZM62.4551 7.03906L43.752 19.7129L62.3848 32.3516H55.1602L35.9648 19.6953L55.0547 7.03906H62.4551Z" fill="white"/>
<path d="M78.4336 7.02148H89.5254V11.9434H77.7129C75.5801 11.9434 73.9629 12.3359 72.8613 13.1211C71.3613 13.9063 70.2129 15.4238 69.416 17.6738C69.2402 18.4355 69.1523 19.0918 69.1523 19.6426C69.1523 21.5527 69.8672 23.3457 71.2969 25.0215C72.2344 25.9238 73.1133 26.5215 73.9336 26.8145C74.8359 27.2246 76.0723 27.4297 77.6426 27.4297H89.5254V32.3516H78.2051C75.3105 32.3516 73.166 32 71.7715 31.2969C68.6543 29.9375 66.4219 27.7109 65.0742 24.6172C64.418 23.0703 64.0898 21.4238 64.0898 19.6777C64.0898 15.9043 65.584 12.6816 68.5723 10.0098C70.5293 8.5332 72.2988 7.66016 73.8809 7.39062C74.6895 7.14453 76.207 7.02148 78.4336 7.02148ZM76.2891 17.252H89.5254V22.1211H76.2891V17.252ZM106.559 7.02148H117.65V11.9434H105.838C103.705 11.9434 102.088 12.3359 100.986 13.1211C99.4863 13.9063 98.3379 15.4238 97.541 17.6738C97.3652 18.4355 97.2773 19.0918 97.2773 19.6426C97.2773 21.5527 97.9922 23.3457 99.4219 25.0215C100.359 25.9238 101.238 26.5215 102.059 26.8145C102.961 27.2246 104.197 27.4297 105.768 27.4297H117.65V32.3516H106.33C103.436 32.3516 101.291 32 99.8965 31.2969C96.7793 29.9375 94.5469 27.7109 93.1992 24.6172C92.543 23.0703 92.2148 21.4238 92.2148 19.6777C92.2148 15.9043 93.709 12.6816 96.6973 10.0098C98.6543 8.5332 100.424 7.66016 102.006 7.39062C102.814 7.14453 104.332 7.02148 106.559 7.02148ZM104.414 17.252H117.65V22.1211H104.414V17.252Z" fill="#2F80ED"/>
<circle cx="128.5" cy="29.5" r="2.5" fill="white"/>
</svg>
