<svg xmlns="http://www.w3.org/2000/svg" width="512" height="512" viewBox="0 0 512 512" version="1.1">
	<path d="M 167 1.108 C 141.005 4.050, 112.122 14.062, 89.500 27.971 C 40.445 58.133, 7.404 110.530, 1.067 168.211 C -0.375 181.331, -0.375 330.669, 1.067 343.789 C 4.303 373.242, 15.433 404.037, 31.467 427.895 C 62.901 474.671, 112.546 504.817, 168.211 510.933 C 181.331 512.375, 330.669 512.375, 343.789 510.933 C 377.413 507.239, 409.792 494.452, 437 474.121 C 446.449 467.060, 461.484 452.655, 469.071 443.395 C 491.696 415.778, 507.957 377.468, 510.668 345.399 C 511.015 341.293, 511.682 337.697, 512.150 337.408 C 512.617 337.118, 513 299.982, 513 254.882 C 513 209.681, 512.616 173.119, 512.144 173.411 C 511.673 173.702, 511.007 170.609, 510.663 166.538 C 508.685 143.141, 497.990 112.206, 484.029 89.500 C 453.867 40.445, 401.470 7.404, 343.789 1.067 C 332.161 -0.211, 178.336 -0.175, 167 1.108 M 0.477 256 C 0.477 301.375, 0.600 319.938, 0.750 297.250 C 0.900 274.563, 0.900 237.438, 0.750 214.750 C 0.600 192.063, 0.477 210.625, 0.477 256" stroke="none" fill="black" fill-rule="evenodd"/>
</svg>